<mxfile host="app.diagrams.net" modified="2023-06-25T13:35:28.411Z" agent="Mozilla/5.0 (Windows NT 10.0; Win64; x64) AppleWebKit/537.36 (KHTML, like Gecko) Chrome/114.0.0.0 Safari/537.36 Edg/114.0.1823.58" etag="pL0TD97Yy1o0t2-GOSi5" version="21.5.0" type="device">
  <diagram name="Page-1" id="B9cQO9lAsHIzxg0cX7gJ">
    <mxGraphModel dx="884" dy="933" grid="1" gridSize="10" guides="1" tooltips="1" connect="1" arrows="1" fold="1" page="1" pageScale="1" pageWidth="850" pageHeight="1100" math="0" shadow="0">
      <root>
        <mxCell id="0" />
        <mxCell id="1" parent="0" />
        <mxCell id="gX25ec2LVG50riSIkWZ7-3" style="edgeStyle=orthogonalEdgeStyle;rounded=0;sketch=1;hachureGap=4;jiggle=2;curveFitting=1;orthogonalLoop=1;jettySize=auto;html=1;exitX=0;exitY=0.5;exitDx=0;exitDy=0;entryX=0.5;entryY=0;entryDx=0;entryDy=0;fontFamily=Architects Daughter;fontSource=https%3A%2F%2Ffonts.googleapis.com%2Fcss%3Ffamily%3DArchitects%2BDaughter;fontSize=20;fontColor=default;curved=1;strokeColor=#0B4D6A;labelBackgroundColor=none;" parent="1" source="gX25ec2LVG50riSIkWZ7-1" target="gX25ec2LVG50riSIkWZ7-2" edge="1">
          <mxGeometry relative="1" as="geometry" />
        </mxCell>
        <mxCell id="gX25ec2LVG50riSIkWZ7-12" value="" style="edgeStyle=orthogonalEdgeStyle;shape=connector;curved=1;rounded=0;sketch=1;hachureGap=4;jiggle=2;curveFitting=1;orthogonalLoop=1;jettySize=auto;html=1;labelBackgroundColor=none;strokeColor=#0B4D6A;fontFamily=Architects Daughter;fontSource=https%3A%2F%2Ffonts.googleapis.com%2Fcss%3Ffamily%3DArchitects%2BDaughter;fontSize=20;fontColor=default;endArrow=classic;" parent="1" source="gX25ec2LVG50riSIkWZ7-1" target="gX25ec2LVG50riSIkWZ7-11" edge="1">
          <mxGeometry relative="1" as="geometry" />
        </mxCell>
        <mxCell id="nV6fu86cEVBBl_CKjUpz-7" value="" style="edgeStyle=orthogonalEdgeStyle;rounded=0;sketch=1;hachureGap=4;jiggle=2;curveFitting=1;orthogonalLoop=1;jettySize=auto;html=1;strokeColor=#0B4D6A;fontFamily=Architects Daughter;fontSource=https%3A%2F%2Ffonts.googleapis.com%2Fcss%3Ffamily%3DArchitects%2BDaughter;fontSize=16;curved=1;labelBackgroundColor=none;fontColor=default;" edge="1" parent="1" source="gX25ec2LVG50riSIkWZ7-1" target="nV6fu86cEVBBl_CKjUpz-6">
          <mxGeometry relative="1" as="geometry" />
        </mxCell>
        <mxCell id="gX25ec2LVG50riSIkWZ7-1" value="&lt;b&gt;&lt;font color=&quot;#ff0080&quot; face=&quot;Tahoma&quot; style=&quot;font-size: 24px;&quot;&gt;7839&lt;/font&gt;&lt;/b&gt;" style="ellipse;whiteSpace=wrap;html=1;sketch=1;hachureGap=4;jiggle=2;curveFitting=1;fontFamily=Architects Daughter;fontSource=https%3A%2F%2Ffonts.googleapis.com%2Fcss%3Ffamily%3DArchitects%2BDaughter;fontSize=20;fillColor=#09555B;strokeColor=#BAC8D3;fillStyle=auto;shadow=0;labelBackgroundColor=none;fontColor=#EEEEEE;" parent="1" vertex="1">
          <mxGeometry x="430" y="90" width="100" height="80" as="geometry" />
        </mxCell>
        <mxCell id="gX25ec2LVG50riSIkWZ7-8" value="" style="edgeStyle=orthogonalEdgeStyle;shape=connector;curved=1;rounded=0;sketch=1;hachureGap=4;jiggle=2;curveFitting=1;orthogonalLoop=1;jettySize=auto;html=1;labelBackgroundColor=none;strokeColor=#0B4D6A;fontFamily=Architects Daughter;fontSource=https%3A%2F%2Ffonts.googleapis.com%2Fcss%3Ffamily%3DArchitects%2BDaughter;fontSize=20;fontColor=default;endArrow=classic;" parent="1" source="gX25ec2LVG50riSIkWZ7-2" target="gX25ec2LVG50riSIkWZ7-7" edge="1">
          <mxGeometry relative="1" as="geometry" />
        </mxCell>
        <mxCell id="gX25ec2LVG50riSIkWZ7-10" value="" style="edgeStyle=orthogonalEdgeStyle;shape=connector;curved=1;rounded=0;sketch=1;hachureGap=4;jiggle=2;curveFitting=1;orthogonalLoop=1;jettySize=auto;html=1;labelBackgroundColor=none;strokeColor=#0B4D6A;fontFamily=Architects Daughter;fontSource=https%3A%2F%2Ffonts.googleapis.com%2Fcss%3Ffamily%3DArchitects%2BDaughter;fontSize=20;fontColor=default;endArrow=classic;" parent="1" source="gX25ec2LVG50riSIkWZ7-2" target="gX25ec2LVG50riSIkWZ7-9" edge="1">
          <mxGeometry relative="1" as="geometry" />
        </mxCell>
        <mxCell id="gX25ec2LVG50riSIkWZ7-2" value="&lt;b&gt;&lt;font color=&quot;#ff0080&quot; face=&quot;Tahoma&quot; style=&quot;font-size: 24px;&quot;&gt;7566&lt;/font&gt;&lt;/b&gt;" style="ellipse;whiteSpace=wrap;html=1;sketch=1;hachureGap=4;jiggle=2;curveFitting=1;fontFamily=Architects Daughter;fontSource=https%3A%2F%2Ffonts.googleapis.com%2Fcss%3Ffamily%3DArchitects%2BDaughter;fontSize=20;fillColor=#09555B;strokeColor=#BAC8D3;fillStyle=auto;shadow=0;labelBackgroundColor=none;fontColor=#EEEEEE;" parent="1" vertex="1">
          <mxGeometry x="100" y="250" width="120" height="70" as="geometry" />
        </mxCell>
        <mxCell id="nV6fu86cEVBBl_CKjUpz-2" value="" style="edgeStyle=orthogonalEdgeStyle;rounded=0;sketch=1;hachureGap=4;jiggle=2;curveFitting=1;orthogonalLoop=1;jettySize=auto;html=1;fontFamily=Architects Daughter;fontSource=https%3A%2F%2Ffonts.googleapis.com%2Fcss%3Ffamily%3DArchitects%2BDaughter;fontSize=16;curved=1;labelBackgroundColor=none;strokeColor=#0B4D6A;fontColor=default;" edge="1" parent="1" source="gX25ec2LVG50riSIkWZ7-7" target="nV6fu86cEVBBl_CKjUpz-1">
          <mxGeometry relative="1" as="geometry" />
        </mxCell>
        <mxCell id="gX25ec2LVG50riSIkWZ7-7" value="&lt;b&gt;&lt;font color=&quot;#ff0080&quot; face=&quot;Tahoma&quot; style=&quot;font-size: 24px;&quot;&gt;7788&lt;/font&gt;&lt;/b&gt;" style="ellipse;whiteSpace=wrap;html=1;sketch=1;hachureGap=4;jiggle=2;curveFitting=1;fontFamily=Architects Daughter;fontSource=https%3A%2F%2Ffonts.googleapis.com%2Fcss%3Ffamily%3DArchitects%2BDaughter;fontSize=20;fillColor=#09555B;strokeColor=#BAC8D3;fillStyle=auto;shadow=0;labelBackgroundColor=none;fontColor=#EEEEEE;" parent="1" vertex="1">
          <mxGeometry x="50" y="385" width="90" height="50" as="geometry" />
        </mxCell>
        <mxCell id="gX25ec2LVG50riSIkWZ7-14" value="" style="edgeStyle=orthogonalEdgeStyle;shape=connector;curved=1;rounded=0;sketch=1;hachureGap=4;jiggle=2;curveFitting=1;orthogonalLoop=1;jettySize=auto;html=1;labelBackgroundColor=none;strokeColor=#0B4D6A;fontFamily=Architects Daughter;fontSource=https%3A%2F%2Ffonts.googleapis.com%2Fcss%3Ffamily%3DArchitects%2BDaughter;fontSize=20;fontColor=default;endArrow=classic;" parent="1" source="gX25ec2LVG50riSIkWZ7-9" target="gX25ec2LVG50riSIkWZ7-13" edge="1">
          <mxGeometry relative="1" as="geometry" />
        </mxCell>
        <mxCell id="gX25ec2LVG50riSIkWZ7-9" value="&lt;b&gt;&lt;font color=&quot;#ff0080&quot; face=&quot;Tahoma&quot; style=&quot;font-size: 24px;&quot;&gt;7902&lt;/font&gt;&lt;/b&gt;" style="ellipse;whiteSpace=wrap;html=1;sketch=1;hachureGap=4;jiggle=2;curveFitting=1;fontFamily=Architects Daughter;fontSource=https%3A%2F%2Ffonts.googleapis.com%2Fcss%3Ffamily%3DArchitects%2BDaughter;fontSize=20;fillColor=#09555B;strokeColor=#BAC8D3;fillStyle=auto;shadow=0;labelBackgroundColor=none;fontColor=#EEEEEE;" parent="1" vertex="1">
          <mxGeometry x="157.5" y="390" width="90" height="50" as="geometry" />
        </mxCell>
        <mxCell id="gX25ec2LVG50riSIkWZ7-16" value="" style="edgeStyle=orthogonalEdgeStyle;shape=connector;curved=1;rounded=0;sketch=1;hachureGap=4;jiggle=2;curveFitting=1;orthogonalLoop=1;jettySize=auto;html=1;labelBackgroundColor=none;strokeColor=#0B4D6A;fontFamily=Architects Daughter;fontSource=https%3A%2F%2Ffonts.googleapis.com%2Fcss%3Ffamily%3DArchitects%2BDaughter;fontSize=20;fontColor=default;endArrow=classic;" parent="1" source="gX25ec2LVG50riSIkWZ7-11" target="gX25ec2LVG50riSIkWZ7-15" edge="1">
          <mxGeometry relative="1" as="geometry" />
        </mxCell>
        <mxCell id="gX25ec2LVG50riSIkWZ7-19" value="" style="edgeStyle=orthogonalEdgeStyle;shape=connector;curved=1;rounded=0;sketch=1;hachureGap=4;jiggle=2;curveFitting=1;orthogonalLoop=1;jettySize=auto;html=1;labelBackgroundColor=none;strokeColor=#0B4D6A;fontFamily=Architects Daughter;fontSource=https%3A%2F%2Ffonts.googleapis.com%2Fcss%3Ffamily%3DArchitects%2BDaughter;fontSize=20;fontColor=default;endArrow=classic;" parent="1" source="gX25ec2LVG50riSIkWZ7-11" target="gX25ec2LVG50riSIkWZ7-15" edge="1">
          <mxGeometry relative="1" as="geometry" />
        </mxCell>
        <mxCell id="gX25ec2LVG50riSIkWZ7-21" value="" style="edgeStyle=orthogonalEdgeStyle;shape=connector;curved=1;rounded=0;sketch=1;hachureGap=4;jiggle=2;curveFitting=1;orthogonalLoop=1;jettySize=auto;html=1;labelBackgroundColor=none;strokeColor=#0B4D6A;fontFamily=Architects Daughter;fontSource=https%3A%2F%2Ffonts.googleapis.com%2Fcss%3Ffamily%3DArchitects%2BDaughter;fontSize=20;fontColor=default;endArrow=classic;" parent="1" source="gX25ec2LVG50riSIkWZ7-11" target="gX25ec2LVG50riSIkWZ7-20" edge="1">
          <mxGeometry relative="1" as="geometry" />
        </mxCell>
        <mxCell id="gX25ec2LVG50riSIkWZ7-23" value="" style="edgeStyle=orthogonalEdgeStyle;shape=connector;curved=1;rounded=0;sketch=1;hachureGap=4;jiggle=2;curveFitting=1;orthogonalLoop=1;jettySize=auto;html=1;labelBackgroundColor=none;strokeColor=#0B4D6A;fontFamily=Architects Daughter;fontSource=https%3A%2F%2Ffonts.googleapis.com%2Fcss%3Ffamily%3DArchitects%2BDaughter;fontSize=20;fontColor=default;endArrow=classic;" parent="1" source="gX25ec2LVG50riSIkWZ7-11" target="gX25ec2LVG50riSIkWZ7-22" edge="1">
          <mxGeometry relative="1" as="geometry" />
        </mxCell>
        <mxCell id="gX25ec2LVG50riSIkWZ7-25" value="" style="edgeStyle=orthogonalEdgeStyle;shape=connector;curved=1;rounded=0;sketch=1;hachureGap=4;jiggle=2;curveFitting=1;orthogonalLoop=1;jettySize=auto;html=1;labelBackgroundColor=none;strokeColor=#0B4D6A;fontFamily=Architects Daughter;fontSource=https%3A%2F%2Ffonts.googleapis.com%2Fcss%3Ffamily%3DArchitects%2BDaughter;fontSize=20;fontColor=default;endArrow=classic;" parent="1" source="gX25ec2LVG50riSIkWZ7-11" target="gX25ec2LVG50riSIkWZ7-24" edge="1">
          <mxGeometry relative="1" as="geometry" />
        </mxCell>
        <mxCell id="nV6fu86cEVBBl_CKjUpz-4" value="" style="edgeStyle=orthogonalEdgeStyle;rounded=0;sketch=1;hachureGap=4;jiggle=2;curveFitting=1;orthogonalLoop=1;jettySize=auto;html=1;strokeColor=#0B4D6A;fontFamily=Architects Daughter;fontSource=https%3A%2F%2Ffonts.googleapis.com%2Fcss%3Ffamily%3DArchitects%2BDaughter;fontSize=16;curved=1;labelBackgroundColor=none;fontColor=default;" edge="1" parent="1" source="gX25ec2LVG50riSIkWZ7-11" target="nV6fu86cEVBBl_CKjUpz-3">
          <mxGeometry relative="1" as="geometry" />
        </mxCell>
        <mxCell id="gX25ec2LVG50riSIkWZ7-11" value="&lt;b&gt;&lt;font color=&quot;#ff0080&quot; face=&quot;Tahoma&quot; style=&quot;font-size: 24px;&quot;&gt;7698&lt;/font&gt;&lt;/b&gt;" style="ellipse;whiteSpace=wrap;html=1;sketch=1;hachureGap=4;jiggle=2;curveFitting=1;fontFamily=Architects Daughter;fontSource=https%3A%2F%2Ffonts.googleapis.com%2Fcss%3Ffamily%3DArchitects%2BDaughter;fontSize=20;fillColor=#09555B;strokeColor=#BAC8D3;fillStyle=auto;shadow=0;labelBackgroundColor=none;fontColor=#EEEEEE;" parent="1" vertex="1">
          <mxGeometry x="420" y="260" width="120" height="70" as="geometry" />
        </mxCell>
        <mxCell id="gX25ec2LVG50riSIkWZ7-13" value="&lt;b&gt;&lt;font color=&quot;#ff0080&quot; face=&quot;Tahoma&quot; style=&quot;font-size: 24px;&quot;&gt;7369&lt;/font&gt;&lt;/b&gt;" style="ellipse;whiteSpace=wrap;html=1;sketch=1;hachureGap=4;jiggle=2;curveFitting=1;fontFamily=Architects Daughter;fontSource=https%3A%2F%2Ffonts.googleapis.com%2Fcss%3Ffamily%3DArchitects%2BDaughter;fontSize=20;fillColor=#09555B;strokeColor=#BAC8D3;fillStyle=auto;shadow=0;labelBackgroundColor=none;fontColor=#EEEEEE;" parent="1" vertex="1">
          <mxGeometry x="157.5" y="490" width="90" height="40" as="geometry" />
        </mxCell>
        <mxCell id="gX25ec2LVG50riSIkWZ7-15" value="&lt;b&gt;&lt;font color=&quot;#ff0080&quot; face=&quot;Tahoma&quot; style=&quot;font-size: 24px;&quot;&gt;7521&lt;/font&gt;&lt;/b&gt;" style="ellipse;whiteSpace=wrap;html=1;sketch=1;hachureGap=4;jiggle=2;curveFitting=1;fontFamily=Architects Daughter;fontSource=https%3A%2F%2Ffonts.googleapis.com%2Fcss%3Ffamily%3DArchitects%2BDaughter;fontSize=20;fillColor=#09555B;strokeColor=#BAC8D3;fillStyle=auto;shadow=0;labelBackgroundColor=none;fontColor=#EEEEEE;" parent="1" vertex="1">
          <mxGeometry x="340" y="390" width="70" height="50" as="geometry" />
        </mxCell>
        <mxCell id="gX25ec2LVG50riSIkWZ7-20" value="&lt;b&gt;&lt;font color=&quot;#ff0080&quot; face=&quot;Tahoma&quot; style=&quot;font-size: 24px;&quot;&gt;7654&lt;/font&gt;&lt;/b&gt;" style="ellipse;whiteSpace=wrap;html=1;sketch=1;hachureGap=4;jiggle=2;curveFitting=1;fontFamily=Architects Daughter;fontSource=https%3A%2F%2Ffonts.googleapis.com%2Fcss%3Ffamily%3DArchitects%2BDaughter;fontSize=20;fillColor=#09555B;strokeColor=#BAC8D3;fillStyle=auto;shadow=0;labelBackgroundColor=none;fontColor=#EEEEEE;" parent="1" vertex="1">
          <mxGeometry x="420" y="390" width="90" height="50" as="geometry" />
        </mxCell>
        <mxCell id="gX25ec2LVG50riSIkWZ7-22" value="&lt;b&gt;&lt;font color=&quot;#ff0080&quot; face=&quot;Tahoma&quot; style=&quot;font-size: 24px;&quot;&gt;7844&lt;/font&gt;&lt;/b&gt;" style="ellipse;whiteSpace=wrap;html=1;sketch=1;hachureGap=4;jiggle=2;curveFitting=1;fontFamily=Architects Daughter;fontSource=https%3A%2F%2Ffonts.googleapis.com%2Fcss%3Ffamily%3DArchitects%2BDaughter;fontSize=20;fillColor=#09555B;strokeColor=#BAC8D3;fillStyle=auto;shadow=0;labelBackgroundColor=none;fontColor=#EEEEEE;" parent="1" vertex="1">
          <mxGeometry x="520" y="390" width="70" height="50" as="geometry" />
        </mxCell>
        <mxCell id="gX25ec2LVG50riSIkWZ7-24" value="&lt;b&gt;&lt;font color=&quot;#ff0080&quot; face=&quot;Tahoma&quot; style=&quot;font-size: 24px;&quot;&gt;7900&lt;/font&gt;&lt;/b&gt;" style="ellipse;whiteSpace=wrap;html=1;sketch=1;hachureGap=4;jiggle=2;curveFitting=1;fontFamily=Architects Daughter;fontSource=https%3A%2F%2Ffonts.googleapis.com%2Fcss%3Ffamily%3DArchitects%2BDaughter;fontSize=20;fillColor=#09555B;strokeColor=#BAC8D3;fillStyle=auto;shadow=0;labelBackgroundColor=none;fontColor=#EEEEEE;" parent="1" vertex="1">
          <mxGeometry x="600" y="390" width="60" height="50" as="geometry" />
        </mxCell>
        <mxCell id="nV6fu86cEVBBl_CKjUpz-1" value="&lt;b&gt;&lt;font color=&quot;#ff0080&quot; face=&quot;Tahoma&quot; style=&quot;font-size: 24px;&quot;&gt;7876&lt;/font&gt;&lt;/b&gt;" style="ellipse;whiteSpace=wrap;html=1;sketch=1;hachureGap=4;jiggle=2;curveFitting=1;fontFamily=Architects Daughter;fontSource=https%3A%2F%2Ffonts.googleapis.com%2Fcss%3Ffamily%3DArchitects%2BDaughter;fontSize=20;fillColor=#09555B;strokeColor=#BAC8D3;fillStyle=auto;shadow=0;labelBackgroundColor=none;fontColor=#EEEEEE;" vertex="1" parent="1">
          <mxGeometry x="60" y="480" width="70" height="45" as="geometry" />
        </mxCell>
        <mxCell id="nV6fu86cEVBBl_CKjUpz-3" value="&lt;b&gt;&lt;font color=&quot;#ff0080&quot; face=&quot;Tahoma&quot; style=&quot;font-size: 24px;&quot;&gt;7499&lt;/font&gt;&lt;/b&gt;" style="ellipse;whiteSpace=wrap;html=1;sketch=1;hachureGap=4;jiggle=2;curveFitting=1;fontFamily=Architects Daughter;fontSource=https%3A%2F%2Ffonts.googleapis.com%2Fcss%3Ffamily%3DArchitects%2BDaughter;fontSize=20;fillColor=#09555B;strokeColor=#BAC8D3;fillStyle=auto;shadow=0;labelBackgroundColor=none;fontColor=#EEEEEE;" vertex="1" parent="1">
          <mxGeometry x="260" y="385" width="80" height="60" as="geometry" />
        </mxCell>
        <mxCell id="nV6fu86cEVBBl_CKjUpz-9" value="" style="edgeStyle=orthogonalEdgeStyle;shape=connector;curved=1;rounded=0;sketch=1;hachureGap=4;jiggle=2;curveFitting=1;orthogonalLoop=1;jettySize=auto;html=1;labelBackgroundColor=none;strokeColor=#0B4D6A;fontFamily=Architects Daughter;fontSource=https%3A%2F%2Ffonts.googleapis.com%2Fcss%3Ffamily%3DArchitects%2BDaughter;fontSize=16;fontColor=default;endArrow=classic;" edge="1" parent="1" source="nV6fu86cEVBBl_CKjUpz-6" target="nV6fu86cEVBBl_CKjUpz-8">
          <mxGeometry relative="1" as="geometry" />
        </mxCell>
        <mxCell id="nV6fu86cEVBBl_CKjUpz-6" value="&lt;b&gt;&lt;font color=&quot;#ff0080&quot; face=&quot;Tahoma&quot; style=&quot;font-size: 24px;&quot;&gt;7782&lt;/font&gt;&lt;/b&gt;" style="ellipse;whiteSpace=wrap;html=1;sketch=1;hachureGap=4;jiggle=2;curveFitting=1;fontFamily=Architects Daughter;fontSource=https%3A%2F%2Ffonts.googleapis.com%2Fcss%3Ffamily%3DArchitects%2BDaughter;fontSize=20;fillColor=#09555B;strokeColor=#BAC8D3;fillStyle=auto;shadow=0;labelBackgroundColor=none;fontColor=#EEEEEE;" vertex="1" parent="1">
          <mxGeometry x="690" y="270" width="110" height="70" as="geometry" />
        </mxCell>
        <mxCell id="nV6fu86cEVBBl_CKjUpz-8" value="&lt;b&gt;&lt;font color=&quot;#ff0080&quot; face=&quot;Tahoma&quot; style=&quot;font-size: 24px;&quot;&gt;7934&lt;/font&gt;&lt;/b&gt;" style="ellipse;whiteSpace=wrap;html=1;sketch=1;hachureGap=4;jiggle=2;curveFitting=1;fontFamily=Architects Daughter;fontSource=https%3A%2F%2Ffonts.googleapis.com%2Fcss%3Ffamily%3DArchitects%2BDaughter;fontSize=20;fillColor=#09555B;strokeColor=#BAC8D3;fillStyle=auto;shadow=0;labelBackgroundColor=none;fontColor=#EEEEEE;" vertex="1" parent="1">
          <mxGeometry x="705" y="390" width="80" height="50" as="geometry" />
        </mxCell>
      </root>
    </mxGraphModel>
  </diagram>
</mxfile>
